# xmcd
#
# Track frame offsets: 
#        150
#        19875
#        36892
#        49790
#        62490
#        75775
#        88425
#        100462
#        130875
#        143170
#        159450
#        174812
#        185612
#        196707
#        211922
#        224370
#        238100
#        251552
#        267350
#        290050
#
# Disc length: 4100 seconds
#
# Revision: 0
# Processed by: cddbd v1.5.2PL0 Copyright (c) Steve Scherf et al.
# Submitted via: ExactAudioCopy v0.99pb4
#
DISCID=20100214
DTITLE=Various Artist - Buddah Deep Soul
DYEAR=1995
DGENRE=Soul
TTITLE0=Joe Anderson - You Gotta Believe
TTITLE1=The Ebonys - Mr. Me Mr. You
TTITLE2=Judy White - I'll Cry
TTITLE3=Al Perkins - Yes My Goodness Yes
TTITLE4=Timothy Wilson -Baby Baby Please
TTITLE5=Arthur Alexander - She'll Throw Stones At You
TTITLE6=Judy White - Building A World For Two
TTITLE7=The Futures - I Had A Dream
TTITLE8=Tony Lamar - It's Too Late
TTITLE9=Curtis Blandon - So Much To Give
TTITLE10=Jimmy Lewis - String Bean
TTITLE11=Judy White - Running Out
TTITLE12=Arthur Alexander - Everybody Needs Someone To Love
TTITLE13=New Birth - Mr. Dream Merchant
TTITLE14=Judy White - Girls Can't Do What The Guys Do
TTITLE15=Henry Lumpkin - I f I Could Make Magic
TTITLE16=Eddie and Ernie - Standing At The Crossroads
TTITLE17=Judy White - Satisfaction Guaranteed
TTITLE18=Vitamin E - Sharing
TTITLE19=Tony Owens - I Don't Want Nobody But My Baby
EXTD=
EXTT0=
EXTT1=
EXTT2=
EXTT3=
EXTT4=
EXTT5=
EXTT6=
EXTT7=
EXTT8=
EXTT9=
EXTT10=
EXTT11=
EXTT12=
EXTT13=
EXTT14=
EXTT15=
EXTT16=
EXTT17=
EXTT18=
EXTT19=
PLAYORDER=
